<?xml version="1.0" standalone="no"?>
<!DOCTYPE svg PUBLIC "-//W3C//DTD SVG 1.1//EN" "http://www.w3.org/Graphics/SVG/1.1/DTD/svg11.dtd" >
<svg xmlns="http://www.w3.org/2000/svg">
<metadata></metadata>
<defs>
<font id="winslettregular" horiz-adv-x="1200" >
<font-face units-per-em="2048" ascent="1638" descent="-410" />
<missing-glyph horiz-adv-x="500" />
<glyph horiz-adv-x="2048" />
<glyph horiz-adv-x="2048" />
<glyph unicode="&#xd;" horiz-adv-x="508" />
<glyph unicode=" " />
<glyph unicode="!" horiz-adv-x="600" d="M0 150q0 62 29.5 106t70.5 44t70.5 -44t29.5 -106t-29.5 -106t-70.5 -44t-70.5 44t-29.5 106zM0 650v950h400v-300h-150q-49 -1 -50 -50v-600q0 -62 -29.5 -106t-70.5 -44t-70.5 44t-29.5 106z" />
<glyph unicode="&#x22;" horiz-adv-x="550" d="M0 1450q0 62 29.5 106t70.5 44t70.5 -44t29.5 -106q0 -39 -12 -72l-38 -228h-100l-38 228q-12 33 -12 72zM250 1450q0 62 29.5 106t70.5 44t70.5 -44t29.5 -106q0 -39 -12 -72l-38 -228h-100l-38 228q-12 33 -12 72z" />
<glyph unicode="#" horiz-adv-x="1300" d="M0 600l100 100h100v200h-100l-100 100l100 100h100v200q0 62 29.5 106t70.5 44t70.5 -44t29.5 -106v-200h300v200q0 62 29.5 106t70.5 44t70.5 -44t29.5 -106v-200h100l100 -100l-100 -100h-100v-200h100l100 -100l-100 -100h-100v-200q0 -62 -29.5 -106t-70.5 -44 t-70.5 44t-29.5 106v200h-300v-200q0 -62 -29.5 -106t-70.5 -44t-70.5 44t-29.5 106v200h-100zM400 700h300v200h-300v-200z" />
<glyph unicode="$" d="M0 0v450h209q12 -33 41 -61v370q-55 29 -103 73q-147 132 -147 318t147 318q48 44 103 73v159h200v-102q25 2 50 2t50 -2v102h200v-159q26 -14 50 -31v40l200 50v-500h-200q0 63 -50 111v-370q55 -29 104 -73q146 -132 146 -318t-146 -318q-49 -44 -104 -73v-159h-200 v102q-25 -2 -50 -2t-50 2v-102h-200v159q-26 14 -50 31v-40zM200 1100q0 -63 50 -111v222q-50 -48 -50 -111zM450 303q24 -3 50 -3t50 3v394q-24 3 -50 3q-25 0 -50 2v-399zM450 903q24 -3 50 -3q25 0 50 -2v399q-24 3 -50 3t-50 -3v-394zM750 389q50 48 50 111t-50 111 v-222z" />
<glyph unicode="%" horiz-adv-x="1300" d="M0 1150q0 186 88 318t212 132q83 0 150 -59v59h500v-300h-50q-51 0 -151 -250l-77 -191q59 41 128 41q124 0 212 -132t88 -318t-88 -318t-212 -132q-83 0 -150 59v-59h-500v299l50 1q49 0 150 250l76 190q-58 -40 -126 -40q-124 0 -212 132t-88 318zM200 1100 q0 -83 29.5 -141.5t70.5 -58.5t70.5 58.5t29.5 141.5t-29.5 141.5t-70.5 58.5t-70.5 -58.5t-29.5 -141.5zM449 300h67q-14 60 -16 128zM584 1300q13 -59 16 -124l49 124h-65zM700 500q0 -83 29.5 -141.5t70.5 -58.5t70.5 58.5t29.5 141.5t-29.5 141.5t-70.5 58.5 t-70.5 -58.5t-29.5 -141.5z" />
<glyph unicode="&#x26;" d="M0 450q0 186 146 318q19 17 39 32q-20 15 -39 32q-146 132 -146 318t146.5 318t353.5 132v100h200v-136q53 -21 100 -54v40l200 50v-500h-200q0 83 -88 142q-6 3 -12 7v-349l100 -100l-100 -100v-349l12 8q88 58 88 141h200v-500l-200 50v40q-47 -33 -100 -54v-136h-200 v100q-207 0 -353.5 132t-146.5 318zM200 500q0 -83 88 -141.5t212 -58.5v400q-124 0 -212 -58.5t-88 -141.5zM200 1100q0 -83 88 -141.5t212 -58.5v400q-124 0 -212 -58.5t-88 -141.5z" />
<glyph unicode="'" horiz-adv-x="300" d="M0 1450q0 62 29.5 106t70.5 44t70.5 -44t29.5 -106q0 -39 -12 -72l-38 -228h-100l-38 228q-12 33 -12 72z" />
<glyph unicode="(" horiz-adv-x="1100" d="M0 800l100 100v550q0 186 146.5 318t353.5 132h300v-500h-200v100q0 100 -100 100q-124 0 -212 -58.5t-88 -141.5v-500l100 -100l-100 -100v-500q0 -83 88 -141.5t212 -58.5q100 0 100 100v100h200v-500h-300q-207 0 -353.5 132t-146.5 318v550z" />
<glyph unicode=")" horiz-adv-x="1100" d="M0 200h200v-100q0 -100 100 -100q124 0 212 58.5t88 141.5v500l-100 100l100 100v500q0 83 -88 141.5t-212 58.5q-100 0 -100 -100v-100h-200v500h300q207 0 353.5 -132t146.5 -318v-550l100 -100l-100 -100v-550q0 -186 -146.5 -318t-353.5 -132h-300v500z" />
<glyph unicode="*" horiz-adv-x="1100" d="M3 1266q0 11 4 22q12 39 63 54q21 6 44 6q32 0 66 -12q38 -12 64 -33l143 -74l-25 150q-12 33 -12 72q0 62 30 106q21 32 49 41q11 4 24 4q41 0 70.5 -44t29.5 -106q0 -39 -12 -72l-25 -150l143 74q26 21 64 33q34 12 66 12q23 0 44 -6q51 -15 63 -54q4 -11 4 -22 q0 -29 -23 -59q-33 -42 -92 -61q-35 -11 -67 -11h-5l-179 -27l115 -113q29 -19 52 -51q36 -50 38 -103v-6q0 -48 -31 -71q-19 -14 -43 -14q-18 0 -39 9q-50 18 -87 68q-23 32 -32 65l-55 110l-56 -111q-9 -33 -32 -65q-37 -50 -86 -68q-22 -9 -40 -9q-24 0 -43 14 q-31 23 -31 71v6q2 53 38 103q23 32 52 51l115 113l-179 27h-5q-32 0 -67 11q-59 19 -91 61q-24 30 -24 59z" />
<glyph unicode="+" horiz-adv-x="1300" d="M0 800l100 100h350v400q0 62 29.5 106t70.5 44t70.5 -44t29.5 -106v-400h350l100 -100l-100 -100h-350v-400q0 -62 -29.5 -106t-70.5 -44t-70.5 44t-29.5 106v400h-350z" />
<glyph unicode="," horiz-adv-x="400" d="M0 150q0 62 29.5 106t70.5 44t70.5 -44t29.5 -106q0 -39 -12 -72l-38 -228h-100l-38 228q-12 33 -12 72z" />
<glyph unicode="-" horiz-adv-x="1300" d="M0 800l100 100h900l100 -100l-100 -100h-900z" />
<glyph unicode="." horiz-adv-x="400" d="M0 150q0 62 29.5 106t70.5 44t70.5 -44t29.5 -106t-29.5 -106t-70.5 -44t-70.5 44t-29.5 106z" />
<glyph unicode="/" horiz-adv-x="1000" d="M0 0v299l50 1q49 0 150 250l299 750h-199v300h500v-300h-50q-51 0 -151 -250l-300 -750h200l1 -300h-500z" />
<glyph unicode="0" d="M0 450v700q0 186 146.5 318t353.5 132t353.5 -132t146.5 -318v-700q0 -186 -146.5 -318t-353.5 -132t-353.5 132t-146.5 318zM200 500q0 -83 88 -141.5t212 -58.5t212 58.5t88 141.5v600q0 83 -88 141.5t-212 58.5t-212 -58.5t-88 -141.5v-600zM300 800l200 200l200 -200 l-200 -200z" />
<glyph unicode="1" horiz-adv-x="800" d="M0 0v300h150q50 0 50 50v350l-100 100l100 100v250q0 50 -50 50h-150v200q200 0 200 200h200v-700l100 -100l-100 -100v-350q0 -50 50 -50h150l1 -301z" />
<glyph unicode="2" d="M0 0v450q0 186 146.5 318t353.5 132q124 0 212 58.5t88 141.5t-88 141.5t-212 58.5t-212 -58.5t-88 -141.5h-200v500l200 -50v-40q129 90 300 90q207 0 353.5 -132t146.5 -318t-146.5 -318t-353.5 -132q-124 0 -212 -58.5t-88 -141.5v-150q0 -50 50 -50h450 q100 0 100 100v100h200v-500h-1000z" />
<glyph unicode="3" d="M0 0v500h200q0 -83 88 -141.5t212 -58.5t212 58.5t88 141.5t-88 141.5t-212 58.5h-50q-50 0 -50 -50v-100h-100v500h100v-100q0 -50 50 -50h50q124 0 212 58.5t88 141.5t-88 141.5t-212 58.5t-212 -58.5t-88 -141.5h-200v500l200 -50v-40q129 90 300 90q207 0 353.5 -132 t146.5 -318t-146 -318q-19 -17 -39 -32q20 -15 39 -32q146 -132 146 -318t-146.5 -318t-353.5 -132q-171 0 -300 90v-40z" />
<glyph unicode="4" horiz-adv-x="1500" d="M0 1300v300l601 -1v-300l-151 1q-49 -1 -50 -50v-551h499l1 1v551q0 50 -50 50h-150v300l601 -1v-300l-151 1q-49 -1 -50 -50v-551l100 -100l-100 -100v-149q0 -50 50 -50h150l1 -301l-601 1v300h150q50 0 50 50v148h-700l-100 100l100 100v551q0 50 -50 50h-150z" />
<glyph unicode="5" d="M0 0v500h200q0 -83 88 -141.5t212 -58.5t212 58.5t88 142.5v191q0 91 -88 149.5t-212 58.5h-500v200l150 500h850v-500h-200v100q0 100 -100 100h-400q-49 -1 -50 -50l-50 -150h300q207 0 353.5 -132t146.5 -318v-200q0 -186 -146.5 -318t-353.5 -132q-171 0 -300 90v-40 z" />
<glyph unicode="6" d="M0 450v700q0 186 146.5 318t353.5 132q171 0 300 -90v40l200 50v-500h-200q0 83 -88 141.5t-212 58.5t-212 -58.5t-88 -141.5v-90q129 90 300 90q207 0 353.5 -132t146.5 -318v-193q0 -193 -146.5 -325t-353.5 -132t-353.5 132t-146.5 318zM200 501q0 -84 88 -142.5 t212 -58.5t212 58.5t88 141.5v201q0 82 -88 140.5t-212 58.5t-212 -58.5t-88 -141.5v-199z" />
<glyph unicode="7" d="M0 1100v500h1000v-300h-50q-51 0 -151 -250l-300 -750h200l1 -300l-601 1v299h151q49 0 150 250l299 750h-399q-100 0 -100 -100v-100h-200z" />
<glyph unicode="8" d="M0 450q0 186 147 318q18 17 38 32q-20 15 -38 32q-147 132 -147 318t146.5 318t353.5 132t353.5 -132t146.5 -318t-146 -318q-19 -17 -39 -32q20 -15 39 -32q146 -132 146 -318t-146.5 -318t-353.5 -132t-353.5 132t-146.5 318zM200 500q0 -83 88 -141.5t212 -58.5 t212 58.5t88 141.5t-88 141.5t-212 58.5t-212 -58.5t-88 -141.5zM200 1100q0 -83 88 -141.5t212 -58.5t212 58.5t88 141.5t-88 141.5t-212 58.5t-212 -58.5t-88 -141.5z" />
<glyph unicode="9" d="M0 0v500h200q0 -83 88 -141.5t212 -58.5t212 58.5t88 141.5v90q-129 -90 -300 -90q-207 0 -353.5 132t-146.5 318v193q0 193 146.5 325t353.5 132t353.5 -132t146.5 -318v-700q0 -186 -146.5 -318t-353.5 -132q-171 0 -300 90v-40zM200 900q0 -83 88 -141.5t212 -58.5 t212 58.5t88 141.5v200q0 83 -88 141.5t-212 58.5t-212 -58.5t-88 -141.5v-200z" />
<glyph unicode=":" horiz-adv-x="400" d="M0 150q0 62 29.5 106t70.5 44t70.5 -44t29.5 -106t-29.5 -106t-70.5 -44t-70.5 44t-29.5 106zM0 800q0 62 29.5 106t70.5 44t70.5 -44t29.5 -106t-29.5 -106t-70.5 -44t-70.5 44t-29.5 106z" />
<glyph unicode=";" horiz-adv-x="400" d="M0 150q0 62 29.5 106t70.5 44t70.5 -44t29.5 -106q0 -39 -12 -72l-38 -228h-100l-38 228q-12 33 -12 72zM0 800q0 62 29.5 106t70.5 44t70.5 -44t29.5 -106t-29.5 -106t-70.5 -44t-70.5 44t-29.5 106z" />
<glyph unicode="&#x3c;" horiz-adv-x="1150" d="M0 800l449 500h-100v300h601v-300h-200q-51 0 -100 -50l-400 -450l400 -450q49 -50 99 -50h200v-300l-600 1v299h100z" />
<glyph unicode="=" horiz-adv-x="1300" d="M0 600l100 100h900l100 -100l-100 -100h-900zM0 1000l100 100h900l100 -100l-100 -100h-900z" />
<glyph unicode="&#x3e;" horiz-adv-x="1150" d="M0 1300v300h601v-300h-100l449 -500l-449 -500h100v-299l-600 -1v300h200q50 0 99 50l400 450l-400 450q-49 50 -100 50h-200z" />
<glyph unicode="?" d="M0 1100v500l200 -50v-40q129 90 300 90q207 0 353.5 -132t146.5 -318t-146.5 -318t-353.5 -132q-200 0 -200 -51v1q0 -62 -29.5 -106t-70.5 -44t-70.5 44t-29.5 106t83 148q135 102 317 102q124 0 212 58.5t88 141.5t-88 141.5t-212 58.5t-212 -58.5t-88 -141.5h-200z M100 150q0 62 29.5 106t70.5 44t70.5 -44t29.5 -106t-29.5 -106t-70.5 -44t-70.5 44t-29.5 106z" />
<glyph unicode="@" d="M0 450v700q0 186 146.5 318t353.5 132q171 0 300 -90v40l200 50v-900h-200v90q-129 -90 -300 -90t-300 90v-290q0 -83 88 -141.5t212 -58.5t212 58.5t88 141.5h200v-500l-200 50v40q-129 -90 -300 -90q-207 0 -353.5 132t-146.5 318zM200 1100q0 -83 88 -141.5t212 -58.5 t212 58.5t88 141.5t-88 141.5t-212 58.5t-212 -58.5t-88 -141.5z" />
<glyph unicode="A" horiz-adv-x="1500" d="M0 1v300h50q50 0 150 250l300 750h-150v299l601 1l-1 -300h-150l300 -750q100 -250 151 -250h50v-300l-601 -1v301h300l-80 199h-540l-80 -199h301l-1 -300h-600zM460 700h380l-190 476z" />
<glyph unicode="B" d="M0 0v300h150q50 0 50 50v350l-100 100l100 100v350q0 50 -50 50h-150v300h500q207 0 353.5 -132t146.5 -318t-146 -318q-19 -17 -39 -32q20 -15 39 -32q146 -132 146 -318t-146.5 -318t-353.5 -132h-500zM400 350q0 -50 50 -50h50q124 0 212 58.5t88 141.5t-88 141.5 t-212 58.5h-100v-350zM400 900h100q124 0 212 58.5t88 141.5t-88 141.5t-212 58.5h-50q-49 -1 -50 -50v-350z" />
<glyph unicode="C" d="M0 450v700q0 186 146.5 318t353.5 132q171 0 300 -90v40l200 50v-500h-200q0 83 -88 141.5t-212 58.5t-212 -58.5t-88 -141.5v-600q0 -83 88 -141.5t212 -58.5t212 58.5t88 141.5h200v-500l-200 50v40q-129 -90 -300 -90q-207 0 -353.5 132t-146.5 318z" />
<glyph unicode="D" d="M0 0v300h150q50 0 50 50v350l-100 100l100 100v350q0 50 -50 50h-150v300h500q207 0 353.5 -132t146.5 -318v-700q0 -186 -146.5 -318t-353.5 -132h-500zM400 350q0 -50 50 -50h50q124 0 212 58.5t88 141.5v600q0 83 -88 141.5t-212 58.5h-50q-49 -1 -50 -50v-350 l100 -100l-100 -100v-350z" />
<glyph unicode="E" d="M0 0v300h150q50 0 50 50v350l-100 100l100 100v350q0 50 -50 50h-150v300h1000v-500h-200v100q0 100 -100 100h-250q-49 -1 -50 -50v-350h200q50 0 50 50v100h100v-500h-100v100q0 50 -50 50h-200v-350q0 -50 50 -50h250q100 0 100 100v100h200v-500h-1000z" />
<glyph unicode="F" d="M0 0v300h150q50 0 50 50v350l-100 100l100 100v350q0 50 -50 50h-150v300h1000v-500h-200v100q0 100 -100 100h-250q-49 -1 -50 -50v-350h200q50 0 50 50v100h100v-500h-100v100q0 50 -50 50h-200v-350q0 -50 50 -50h150v-300h-600z" />
<glyph unicode="G" d="M0 450v700q0 186 146.5 318t353.5 132q171 0 300 -90v40l200 50v-500h-200q0 83 -88 141.5t-212 58.5t-212 -58.5t-88 -141.5v-600q0 -83 88 -141.5t212 -58.5t212 58.5t88 141.5v200h-200q-50 0 -50 -50v-100h-100v500h100v-100q0 -50 50 -50h400v-900l-200 50v40 q-129 -90 -300 -90q-207 0 -353.5 132t-146.5 318z" />
<glyph unicode="H" horiz-adv-x="1500" d="M0 0v300h150q50 0 50 50v350l-100 100l100 100v350q0 50 -50 50h-150v300l601 -1v-300l-151 1q-49 -1 -50 -50v-350h499l1 1v350q0 50 -50 50h-150v300l601 -1v-300l-151 1q-49 -1 -50 -50v-350l100 -100l-100 -100v-350q0 -50 50 -50h150l1 -301l-601 1v300h150 q50 0 50 50v349h-500v-350q0 -50 50 -50h150l1 -301z" />
<glyph unicode="I" horiz-adv-x="800" d="M0 0v300h150q50 0 50 50v350l-100 100l100 100v350q0 50 -50 50h-150v300l601 -1v-300l-151 1q-49 -1 -50 -50v-350l100 -100l-100 -100v-350q0 -50 50 -50h150l1 -301z" />
<glyph unicode="J" horiz-adv-x="1400" d="M0 0v500h200q0 -83 88 -141.5t212 -58.5t212 58.5t88 141.5v450h-1v300q0 50 -50 50h-149v300h600v-300h-151q-49 -1 -50 -50v-200h1v-600q0 -186 -146.5 -318t-353.5 -132q-171 0 -300 90v-40z" />
<glyph unicode="K" horiz-adv-x="1500" d="M0 0v300h150q50 0 50 50v350l-100 100l100 100v350q0 50 -50 50h-150v300l601 -1v-300l-151 1q-49 -1 -50 -50v-350l100 -100l-100 -100v-60l550 660h-250v301l601 -1v-300h-50q-51 0 -100 -50l-376 -450l376 -450q49 -50 99 -50h50v-300l-600 1v299h250l-300 353 l-250 -294v-9q0 -50 50 -50h150l1 -301z" />
<glyph unicode="L" d="M0 0v300h150q50 0 50 50v350l-100 100l100 100v350q0 50 -50 50h-150v300l601 -1v-300l-151 1q-49 -1 -50 -50v-350l100 -100l-100 -100v-350q0 -50 50 -50h250q100 0 100 100v100h200v-500h-1000z" />
<glyph unicode="M" horiz-adv-x="2200" d="M0 0v300h150q50 0 50 50v350l-100 100l100 100v350q0 50 -50 50h-150v300h849l1 -300h-200l350 -875l350 875h-200v301l851 -1v-300l-151 1q-49 -1 -50 -50v-350l100 -100l-100 -100v-350q0 -50 50 -50h150l1 -301l-601 1v300h150q50 0 50 50v350l-100 100l100 100v350 q0 30 -18 42q-49 -35 -132 -243l-300 -750h150l1 -300l-601 1v299h150l-300 750q-82 206 -131 242q-18 -12 -19 -42v-350l100 -100l-100 -100v-350q0 -50 50 -50h150l1 -301z" />
<glyph unicode="N" horiz-adv-x="1500" d="M0 0v300h150q50 0 50 50v350l-100 100l100 100v350q0 50 -50 50h-150v300h400l500 -1100v751q0 50 -50 50h-150v300l601 -1v-300l-151 1q-49 -1 -50 -50v-350l100 -100l-100 -100v-350q0 -50 50 -50h150l1 -301h-401l-500 1100v-750q0 -50 50 -50h150l1 -301z" />
<glyph unicode="O" d="M0 450v700q0 186 146.5 318t353.5 132t353.5 -132t146.5 -318v-700q0 -186 -146.5 -318t-353.5 -132t-353.5 132t-146.5 318zM200 500q0 -83 88 -141.5t212 -58.5t212 58.5t88 141.5v600q0 83 -88 141.5t-212 58.5t-212 -58.5t-88 -141.5v-600z" />
<glyph unicode="P" d="M0 0v300h150q50 0 50 50v350l-100 100l100 100v350q0 50 -50 50h-150v300h500q207 0 353.5 -132t146.5 -318t-146.5 -318t-353.5 -132h-100v-350q0 -50 50 -50h150v-300h-600zM400 900h100q124 0 212 58.5t88 141.5t-88 141.5t-212 58.5h-50q-49 -1 -50 -50v-350z" />
<glyph unicode="Q" d="M0 450v700q0 186 146.5 318t353.5 132t353.5 -132t146.5 -318v-700q0 -186 -146 -318q-74 -66 -162 -99q8 -40 8 -83q28 -51 88 -91q88 -59 212 -59v-300q-207 0 -353.5 132t-146.5 318v50q-207 0 -353.5 132t-146.5 318zM200 500q0 -83 88 -141.5t212 -58.5t212 58.5 t88 141.5v600q0 83 -88 141.5t-212 58.5t-212 -58.5t-88 -141.5v-600z" />
<glyph unicode="R" d="M0 0v300h150q50 0 50 50v350l-100 100l100 100v350q0 50 -50 50h-150v300h500q207 0 353.5 -132t146.5 -318t-146 -318q-75 -67 -164 -100q110 -121 110 -282q28 -51 88 -91q88 -59 212 -59v-300q-207 0 -353.5 132t-146.5 318v50q0 83 -88 142q-50 33 -112 47v-339 q0 -50 50 -50h150v-300h-600zM400 900h100q124 0 212 58.5t88 141.5t-88 141.5t-212 58.5h-50q-49 -1 -50 -50v-350z" />
<glyph unicode="S" d="M0 0v450h209q19 -51 79 -91q88 -59 212 -59t212 58.5t88 141.5t-88 142q-54 35 -121 49l-91 -91l-110 110q-138 27 -243 122q-147 132 -147 318t146.5 318t353.5 132q171 0 300 -90v40l200 50v-500h-200q0 83 -88 141.5t-212 58.5t-212 -58.5t-88 -141.5t88 -141 q54 -36 121 -50l91 91l110 -110q138 -27 244 -122q146 -132 146 -318t-146.5 -318t-353.5 -132q-171 0 -300 90v-40z" />
<glyph unicode="T" d="M0 1100v500h1000v-500h-200v100q0 100 -100 100h-50q-49 -1 -50 -50v-350l100 -100l-100 -100v-350q0 -50 50 -50h150v-300h-600v300h150q50 0 50 50v350l-100 100l100 100v350q0 50 -50 50h-50q-100 0 -100 -100v-100h-200z" />
<glyph unicode="U" horiz-adv-x="1600" d="M0 1300v300l601 -1v-300l-151 1q-49 -1 -50 -50v-750q0 -83 88 -141.5t212 -58.5t212 58.5t88 141.5v450h-1v300q0 50 -50 50h-150v300l601 -1v-300l-151 1q-49 -1 -50 -50v-200h1v-600q0 -186 -146.5 -318t-353.5 -132t-353.5 132t-146.5 318v800q0 50 -50 50h-150z" />
<glyph unicode="V" horiz-adv-x="1500" d="M0 1300v300h600l1 -300h-301l350 -875l350 875h-300v301l601 -1v-300h-50q-51 0 -151 -250l-300 -750h150l1 -300l-601 1v299h150l-300 750q-100 250 -150 250h-50z" />
<glyph unicode="W" horiz-adv-x="2300" d="M0 1300v300h600l1 -300h-301l350 -875l298 745q-62 129 -98 129h-50v302l501 -1v-300h-1v-1h-56q-35 -10 -92 -129l298 -746l350 875h-300v301l601 -1v-300h-50q-51 0 -151 -250l-300 -750h150l1 -300l-601 1v299h150l-250 626l-250 -625h150l1 -300l-601 1v299h150 l-300 750q-100 250 -150 250h-50z" />
<glyph unicode="X" horiz-adv-x="1500" d="M0 0v300h50q50 0 101 50l374 450l-375 450q-50 50 -100 50h-50v300l601 -1v-299h-251l300 -353l300 353h-250v301l601 -1v-300h-50q-51 0 -100 -50l-376 -450l376 -450q49 -50 99 -50h50v-300l-600 1v299h250l-300 353l-300 -353h250l1 -301z" />
<glyph unicode="Y" horiz-adv-x="1500" d="M0 1300v300l601 -1v-299h-251l300 -353l300 353h-250v301l601 -1v-300h-50q-51 0 -100 -50l-376 -450l-25 -29v-420q0 -50 50 -50h150l1 -301l-601 1v300h150q50 0 50 50v420l-25 29l-375 450q-50 50 -100 50h-50z" />
<glyph unicode="Z" d="M0 0v300l750 1000h-450q-100 0 -100 -100v-100h-200v500h1000v-300l-750 -1000h450q100 0 100 100v100h200v-500h-1000z" />
<glyph unicode="[" horiz-adv-x="1000" d="M0 0h150q50 0 50 50v650l-100 100l100 100v650q0 50 -50 50h-150v300h800v-500h-200v100q0 100 -100 100h-50q-49 -1 -50 -50v-650l100 -100l-100 -100v-650q0 -50 50 -50h50q100 0 100 100v100h200v-500h-800v300z" />
<glyph unicode="\" horiz-adv-x="1000" d="M0 1300v300h500v-300h-199l299 -750q101 -250 150 -250l50 -1v-299h-500l1 300h200l-300 750q-100 250 -151 250h-50z" />
<glyph unicode="]" horiz-adv-x="1000" d="M0 200h200v-100q0 -100 100 -100h50q50 0 50 50v650l-100 100l100 100v650q-1 49 -50 50h-50q-100 0 -100 -100v-100h-200v500h800v-300h-150q-50 0 -50 -50v-650l100 -100l-100 -100v-650q0 -50 50 -50h150v-300h-800v500z" />
<glyph unicode="^" d="M0 1800l350 500h300l350 -500h-250l-250 357l-250 -357h-250z" />
<glyph unicode="_" horiz-adv-x="1300" d="M0 -200l100 100h900l100 -100l-100 -100h-900z" />
<glyph unicode="`" horiz-adv-x="700" d="M0 2050q0 100 100 100t200 -100l200 -250h-50l-150 50q-300 100 -300 200z" />
<glyph unicode="a" d="M0 1v240h40q40 0 120 200l240 600h-120v239l481 1l-1 -240h-120l240 -600q80 -200 121 -200h40v-240l-481 -1v241h240l-64 159h-432l-64 -159h241l-1 -240h-480zM368 560h304l-152 381z" />
<glyph unicode="b" horiz-adv-x="960" d="M0 0v240h120q40 0 40 40v280l-80 80l80 80v280q0 40 -40 40h-120v240h400q166 0 283 -105.5t117 -254.5t-117 -254q-15 -14 -31 -26q16 -12 31 -26q117 -105 117 -254t-117 -254.5t-283 -105.5h-400zM320 280q0 -40 40 -40h40q99 0 169.5 47t70.5 113t-70.5 113 t-169.5 47h-80v-280zM320 720h80q99 0 169.5 47t70.5 113t-70.5 113t-169.5 47h-40q-39 -1 -40 -40v-280z" />
<glyph unicode="c" horiz-adv-x="960" d="M0 360v560q0 149 117 254.5t283 105.5q136 0 240 -72v32l160 40v-400h-160q0 66 -70.5 113t-169.5 47t-169.5 -47t-70.5 -113v-480q0 -66 70.5 -113t169.5 -47t169.5 47t70.5 113h160v-400l-160 40v32q-104 -72 -240 -72q-166 0 -283 105.5t-117 254.5z" />
<glyph unicode="d" horiz-adv-x="960" d="M0 0v240h120q40 0 40 40v280l-80 80l80 80v280q0 40 -40 40h-120v240h400q166 0 283 -105.5t117 -254.5v-560q0 -149 -117 -254.5t-283 -105.5h-400zM320 280q0 -40 40 -40h40q99 0 169.5 47t70.5 113v480q0 66 -70.5 113t-169.5 47h-40q-39 -1 -40 -40v-280l80 -80 l-80 -80v-280z" />
<glyph unicode="e" horiz-adv-x="960" d="M0 0v240h120q40 0 40 40v280l-80 80l80 80v280q0 40 -40 40h-120v240h800v-400h-160v80q0 80 -80 80h-200q-39 -1 -40 -40v-280h160q40 0 40 40v80h80v-400h-80v80q0 40 -40 40h-160v-280q0 -40 40 -40h200q80 0 80 80v80h160v-400h-800z" />
<glyph unicode="f" horiz-adv-x="960" d="M0 0v240h120q40 0 40 40v280l-80 80l80 80v280q0 40 -40 40h-120v240h800v-400h-160v80q0 80 -80 80h-200q-39 -1 -40 -40v-280h160q40 0 40 40v80h80v-400h-80v80q0 40 -40 40h-160v-280q0 -40 40 -40h120v-240h-480z" />
<glyph unicode="g" horiz-adv-x="960" d="M0 360v560q0 149 117 254.5t283 105.5q137 0 240 -72v32l160 40v-400h-160q0 66 -70.5 113t-169.5 47t-169.5 -47t-70.5 -113v-480q0 -66 70.5 -113t169.5 -47t169.5 47t70.5 113v160h-160q-40 0 -40 -40v-80h-80v400h80v-80q0 -40 40 -40h320v-720l-160 40v32 q-103 -72 -240 -72q-166 0 -283 105.5t-117 254.5z" />
<glyph unicode="h" d="M0 0v240h120q40 0 40 40v280l-80 80l80 80v280q0 40 -40 40h-120v240l481 -1v-240l-121 1q-39 -1 -40 -40v-280h399l1 1v280q0 40 -40 40h-120v240l481 -1v-240l-121 1q-39 -1 -40 -40v-280l80 -80l-80 -80v-280q0 -40 40 -40h120l1 -241l-481 1v240h120q40 0 40 40v279 h-400v-280q0 -40 40 -40h120l1 -241z" />
<glyph unicode="i" horiz-adv-x="640" d="M0 0v240h120q40 0 40 40v280l-80 80l80 80v280q0 40 -40 40h-120v240l481 -1v-240l-121 1q-39 -1 -40 -40v-280l80 -80l-80 -80v-280q0 -40 40 -40h120l1 -241z" />
<glyph unicode="j" horiz-adv-x="1120" d="M0 0v400h160q0 -66 70.5 -113t169.5 -47t169.5 47t70.5 113v360h-1v240q0 40 -40 40h-119v240h480v-240h-121q-39 -1 -40 -40v-160h1v-480q0 -149 -117 -254.5t-283 -105.5q-136 0 -240 72v-32z" />
<glyph unicode="k" d="M0 0v240h120q40 0 40 40v280l-80 80l80 80v280q0 40 -40 40h-120v240l481 -1v-240l-121 1q-39 -1 -40 -40v-280l80 -80l-80 -80v-48l440 528h-200v241l481 -1v-240h-40q-41 0 -80 -40l-301 -360l301 -360q39 -40 79 -40h40v-240l-480 1v239h200l-240 282l-200 -235v-7 q0 -40 40 -40h120l1 -241z" />
<glyph unicode="l" horiz-adv-x="960" d="M0 0v240h120q40 0 40 40v280l-80 80l80 80v280q0 40 -40 40h-120v240l481 -1v-240l-121 1q-39 -1 -40 -40v-280l80 -80l-80 -80v-280q0 -40 40 -40h200q80 0 80 80v80h160v-400h-800z" />
<glyph unicode="m" horiz-adv-x="1760" d="M0 0v240h120q40 0 40 40v280l-80 80l80 80v280q0 40 -40 40h-120v240h679l1 -240h-160l280 -700l280 700h-160v241l681 -1v-240l-121 1q-39 -1 -40 -40v-280l80 -80l-80 -80v-280q0 -40 40 -40h120l1 -241l-481 1v240h120q40 0 40 40v280l-80 80l80 80v280q0 24 -14 33 q-40 -28 -106 -194l-240 -600h120l1 -240l-481 1v239h120l-240 600q-66 164 -105 194q-15 -10 -15 -34v-280l80 -80l-80 -80v-280q0 -40 40 -40h120l1 -241z" />
<glyph unicode="n" d="M0 0v240h120q40 0 40 40v280l-80 80l80 80v280q0 40 -40 40h-120v240h320l400 -880v601q0 40 -40 40h-120v240l481 -1v-240l-121 1q-39 -1 -40 -40v-280l80 -80l-80 -80v-280q0 -40 40 -40h120l1 -241h-321l-400 880v-600q0 -40 40 -40h120l1 -241z" />
<glyph unicode="o" horiz-adv-x="960" d="M0 360v560q0 149 117 254.5t283 105.5t283 -105.5t117 -254.5v-560q0 -149 -117 -254.5t-283 -105.5t-283 105.5t-117 254.5zM160 400q0 -66 70.5 -113t169.5 -47t169.5 47t70.5 113v480q0 66 -70.5 113t-169.5 47t-169.5 -47t-70.5 -113v-480z" />
<glyph unicode="p" horiz-adv-x="960" d="M0 0v240h120q40 0 40 40v280l-80 80l80 80v280q0 40 -40 40h-120v240h400q166 0 283 -105.5t117 -254.5t-117 -254.5t-283 -105.5h-80v-280q0 -40 40 -40h120v-240h-480zM320 720h80q99 0 169.5 47t70.5 113t-70.5 113t-169.5 47h-40q-39 -1 -40 -40v-280z" />
<glyph unicode="q" horiz-adv-x="960" d="M0 360v560q0 149 117 254.5t283 105.5t283 -105.5t117 -254.5v-560q0 -149 -117 -254q-59 -53 -129 -80q6 -32 6 -66q22 -41 70 -73q71 -47 170 -47v-240q-166 0 -283 105.5t-117 254.5v40q-166 0 -283 105.5t-117 254.5zM160 400q0 -66 70.5 -113t169.5 -47t169.5 47 t70.5 113v480q0 66 -70.5 113t-169.5 47t-169.5 -47t-70.5 -113v-480z" />
<glyph unicode="r" horiz-adv-x="960" d="M0 0v240h120q40 0 40 40v280l-80 80l80 80v280q0 40 -40 40h-120v240h400q166 0 283 -105.5t117 -254.5t-117 -254q-60 -54 -131 -80q88 -97 88 -226q22 -41 70 -73q71 -47 170 -47v-240q-166 0 -283 105.5t-117 254.5v40q0 66 -70 114q-40 26 -90 37v-271q0 -40 40 -40 h120v-240h-480zM320 720h80q99 0 169.5 47t70.5 113t-70.5 113t-169.5 47h-40q-39 -1 -40 -40v-280z" />
<glyph unicode="s" horiz-adv-x="960" d="M0 0v360h167q15 -41 63 -73q71 -47 170 -47t169.5 47t70.5 113t-70 113q-43 29 -97 40l-73 -73l-88 88q-110 21 -195 98q-117 105 -117 254t117 254.5t283 105.5q137 0 240 -72v32l160 40v-400h-160q0 66 -70.5 113t-169.5 47t-169.5 -47t-70.5 -113t70 -113 q43 -29 97 -40l73 73l88 -88q110 -21 195 -98q117 -105 117 -254t-117 -254.5t-283 -105.5q-137 0 -240 72v-32z" />
<glyph unicode="t" horiz-adv-x="960" d="M0 880v400h800v-400h-160v80q0 80 -80 80h-40q-39 -1 -40 -40v-280l80 -80l-80 -80v-280q0 -40 40 -40h120v-240h-480v240h120q40 0 40 40v280l-80 80l80 80v280q0 40 -40 40h-40q-80 0 -80 -80v-80h-160z" />
<glyph unicode="u" horiz-adv-x="1280" d="M0 1040v240l481 -1v-240l-121 1q-39 -1 -40 -40v-600q0 -66 70.5 -113t169.5 -47t169.5 47t70.5 113v360h-1v240q0 40 -40 40h-120v240l481 -1v-240l-121 1q-39 -1 -40 -40v-160h1v-480q0 -149 -117 -254.5t-283 -105.5t-283 105.5t-117 254.5v640q0 40 -40 40h-120z" />
<glyph unicode="v" d="M0 1040v240h480l1 -240h-241l280 -700l280 700h-240v241l481 -1v-240h-41q-40 0 -120 -200l-240 -600h120l1 -240l-481 1v239h120l-240 600q-80 200 -120 200h-40z" />
<glyph unicode="w" horiz-adv-x="1840" d="M0 1040v240h480l1 -240h-241l280 -700l238 596q-49 103 -78 103h-40v242l401 -1v-240h-1v-1h-45q-28 -8 -74 -103l239 -597l280 700h-240v241l481 -1v-240h-40q-41 0 -121 -200l-240 -600h120l1 -240l-481 1v239h120l-200 501l-200 -500h120l1 -240l-481 1v239h120 l-240 600q-80 200 -120 200h-40z" />
<glyph unicode="x" d="M0 0v240h40q40 0 80 40l300 360l-300 360q-40 40 -80 40h-40v240l481 -1v-239h-201l240 -282l240 282h-200v241l481 -1v-240h-41q-40 0 -80 -40l-300 -360l300 -360q40 -40 80 -40h40v-240l-480 1v239h200l-240 282l-240 -282h200l1 -241z" />
<glyph unicode="y" d="M0 1040v240l481 -1v-239h-201l240 -282l240 282h-200v241l481 -1v-240h-40q-41 0 -80 -40l-301 -360l-20 -24v-335q0 -40 40 -40h120l1 -241l-481 1v240h120q40 0 40 40v335l-20 24l-300 360q-40 40 -80 40h-40z" />
<glyph unicode="z" horiz-adv-x="960" d="M0 0v240l600 800h-360q-80 0 -80 -80v-80h-160v400h800v-240l-600 -800h360q80 0 80 80v80h160v-400h-800z" />
<glyph unicode="{" d="M0 800q200 200 200 350v300q0 186 146.5 318t353.5 132h300v-500h-200v100q0 100 -100 100q-124 0 -212 -58.5t-88 -141.5v-250q0 -186 -146 -318q-19 -17 -39 -32q20 -15 39 -32q146 -132 146 -318v-250q0 -83 88 -141.5t212 -58.5q100 0 100 100v100h200v-500h-300 q-207 0 -353.5 132t-146.5 318v300q0 150 -200 350z" />
<glyph unicode="|" horiz-adv-x="800" d="M0 0h150q50 0 50 50v650l-100 100l100 100v650q0 50 -50 50h-150v300l601 -1v-300l-151 1q-49 -1 -50 -50v-650l100 -100l-100 -100v-650q0 -50 50 -50h150l1 -301l-601 1v300z" />
<glyph unicode="}" d="M0 200h200v-100q0 -100 100 -100q124 0 212 58.5t88 141.5v250q0 186 146 318q19 17 39 32q-20 15 -39 32q-146 132 -146 318v250q0 83 -88 141.5t-212 58.5q-100 0 -100 -100v-100h-200v500h300q207 0 353.5 -132t146.5 -318v-300q0 -150 200 -350q-200 -200 -200 -350 v-300q0 -186 -146.5 -318t-353.5 -132h-300v500z" />
<glyph unicode="~" d="M0 1800v200q50 50 125 75t175 25t200 -25t200 -25t175 25t125 75v-200q-50 -50 -125 -75t-175 -25t-200 25t-200 25t-175 -25t-125 -75z" />
<glyph unicode="&#xa0;" />
<glyph unicode="&#xa1;" horiz-adv-x="600" d="M0 0v300h150q49 1 50 50v600q0 62 29.5 106t70.5 44t70.5 -44t29.5 -106v-950h-400zM200 1450q0 62 29.5 106t70.5 44t70.5 -44t29.5 -106t-29.5 -106t-70.5 -44t-70.5 44t-29.5 106z" />
<glyph unicode="&#xa2;" d="M0 450v500q0 186 147 318q109 99 253 124v108h200v-108q110 -19 200 -82v40l200 50v-500h-200q0 83 -88 142q-50 33 -112 47v-778q62 14 112 48q88 58 88 141h200v-500l-200 50v40q-90 -63 -200 -82v-108h-200v108q-144 25 -253 124q-147 132 -147 318zM200 500 q0 -83 88 -141q50 -34 112 -48v778q-62 -14 -112 -47q-88 -59 -88 -142v-400z" />
<glyph unicode="&#xa3;" horiz-adv-x="1300" d="M0 0v300h50q50 0 50 50v350l-100 100l100 100v250q0 186 146.5 318t353.5 132q171 0 300 -90v40l200 50v-500h-200q0 83 -88 141.5t-212 58.5t-212 -58.5t-88 -141.5v-200h200q50 0 50 50v100h100v-500h-100v100q0 50 -50 50h-200v-350q0 -50 50 -50h450q100 0 100 100 v100h200v-500h-1100z" />
<glyph unicode="&#xa4;" horiz-adv-x="1014" d="M122 413l118 117q-32 46 -48 103q-12 42 -12 84q0 44 13 87q16 55 47 99l-118 118l80 81l118 -118q44 30 99 46q44 14 89 14q41 0 83 -12q57 -17 102 -48l118 118l80 -81l-117 -117q31 -46 48 -102q12 -42 12 -85q0 -42 -12 -85q-17 -56 -48 -102l117 -117l-80 -81 l-118 118q-45 -32 -101 -48q-42 -12 -85 -12q-42 0 -85 12q-57 16 -102 48l-118 -118zM284 716q0 -28 9 -56q16 -59 57 -100q41 -40 99 -57q29 -8 58 -8t58 8q58 17 99 57q40 41 57 99q9 29 9 58t-9 58q-17 58 -57 99q-41 40 -100 57q-29 8 -58 8t-58 -9q-58 -17 -98 -56 q-39 -40 -56 -98q-10 -30 -10 -60z" />
<glyph unicode="&#xa5;" horiz-adv-x="1500" d="M0 1300v300l601 -1v-299h-251l255 -300h90l255 300h-250v301l601 -1v-300h-50q-51 0 -100 -50l-209 -250h158l100 -100l-100 -100h-325l-25 -29v-171h350l100 -100l-100 -100h-350v-49q0 -50 50 -50h150l1 -301l-601 1v300h150q50 0 50 50v49h-350l-100 100l100 100h350 v171l-25 29h-325l-100 100l100 100h158l-208 250q-50 50 -100 50h-50z" />
<glyph unicode="&#xa6;" horiz-adv-x="1014" d="M427 371h160v-789h-160v789zM427 789v789h160v-789h-160z" />
<glyph unicode="&#xa7;" d="M0 0v450h209q19 -51 79 -91q88 -59 212 -59t212 58.5t88 141.5q0 75 -71 130q-8 -7 -17 -14q-88 -66 -212 -66t-212 66t-88 159q0 7 1 15q-28 19 -54 42q-147 132 -147 318t146.5 318t353.5 132q171 0 300 -90v40l200 50v-500h-200q0 83 -88 141.5t-212 58.5t-212 -58.5 t-88 -141.5t88 -141q9 -6 19 -12q82 53 193 53q124 0 212 -66q69 -52 84 -121q30 -20 58 -45q146 -132 146 -318t-146.5 -318t-353.5 -132q-171 0 -300 90v-40zM400 775q0 -10 29.5 -17.5t70.5 -7.5t70.5 7.5t29.5 17.5t-29.5 17.5t-70.5 7.5t-70.5 -7.5t-29.5 -17.5z" />
<glyph unicode="&#xa8;" horiz-adv-x="700" d="M0 1950q0 62 29.5 106t70.5 44t70.5 -44t29.5 -106t-29.5 -106t-70.5 -44t-70.5 44t-29.5 106zM300 1950q0 62 29.5 106t70.5 44t70.5 -44t29.5 -106t-29.5 -106t-70.5 -44t-70.5 44t-29.5 106z" />
<glyph unicode="&#xa9;" horiz-adv-x="1674" d="M100 718q0 148 55.5 283t159.5 238q102 104 238.5 160.5t286.5 56.5q145 0 280 -56.5t239 -160.5q102 -101 158.5 -238t56.5 -283q0 -147 -56.5 -282t-162.5 -240q-105 -105 -239 -159.5t-283 -54.5q-146 0 -278 55.5t-238 160.5q-106 104 -161.5 237.5t-55.5 282.5z M160 718q0 -137 51 -259t148 -219q98 -96 219 -147t256 -51q137 0 259.5 50.5t219.5 145.5q97 98 149 221.5t52 258.5q0 134 -52 259.5t-145 219.5q-96 96 -220 147.5t-258 51.5q-137 0 -262 -51.5t-220 -147.5t-146 -219.5t-51 -259.5zM351 719q0 126 65.5 244t187.5 184.5 t254 66.5q38 0 75 -6.5t76 -20.5q5 -1 9 -1q19 0 26 30h42l72 -198h-44q-52 94 -131 124q-72 26 -147 26h-15q-86 -8 -166.5 -71t-121.5 -177q-33 -90 -33 -184q0 -25 2 -50q11 -121 69.5 -224t149.5 -152q72 -40 166 -42q124 0 194 56t70 126h53v-100q0 -46 -96.5 -86.5 t-242.5 -40.5q-142 0 -264 68t-186 185t-64 243z" />
<glyph unicode="&#xaa;" horiz-adv-x="648" />
<glyph unicode="&#xab;" horiz-adv-x="944" d="M174 479l342 303h14v-37l-205 -266l205 -266v-37h-14zM487 479l342 303h14v-37l-205 -266l205 -266v-37h-14z" />
<glyph unicode="&#xac;" horiz-adv-x="1014" d="M87 667v100h840v-491l-1 -1h-98v392h-741z" />
<glyph unicode="&#xad;" horiz-adv-x="1300" d="M0 800l100 100h900l100 -100l-100 -100h-900z" />
<glyph unicode="&#xae;" horiz-adv-x="1674" d="M100 718q0 148 55.5 283t159.5 238q102 104 238.5 160.5t286.5 56.5q145 0 280 -56.5t239 -160.5q102 -101 158.5 -238t56.5 -283q0 -147 -56.5 -282t-162.5 -240q-105 -105 -239 -159.5t-283 -54.5q-146 0 -278 55.5t-238 160.5q-106 104 -161.5 237.5t-55.5 282.5z M160 718q0 -137 51 -259t148 -219q98 -96 219 -147t256 -51q137 0 259.5 50.5t219.5 145.5q97 98 149 221.5t52 258.5q0 134 -52 259.5t-145 219.5q-96 96 -220 147.5t-258 51.5q-137 0 -262 -51.5t-220 -147.5t-146 -219.5t-51 -259.5zM524 269v50h43q37 0 37 121v538 q0 121 -37 121h-43v70h356q64 -1 125 -42q60 -41 92.5 -114t32.5 -152q0 -78 -32 -150.5t-114 -134.5l82 -116q100 -141 150 -141h34v-50h-346v50h45q30 0 30 22q0 29 -69 114l-75 102q-42 0 -84 42v-159q0 -121 36 -121h53v-50h-316zM751 725l3 -8q23 -56 56 -81 q29 -22 56 -22h6q31 4 61.5 38.5t46.5 97.5q13 50 13 103q0 13 -1 27q-4 67 -28 124.5t-56.5 76t-63.5 18.5h-93v-374z" />
<glyph unicode="&#xaf;" horiz-adv-x="670" />
<glyph unicode="&#xb0;" horiz-adv-x="674" d="M60 1164q0 116 81.5 197t197.5 81q115 0 196 -81.5t81 -196.5q0 -114 -82 -196t-197 -82q-117 0 -197 81t-80 197zM130 1163q0 -87 61 -147t148 -60t147 60t60 147t-60.5 148t-146.5 61t-147.5 -61t-61.5 -148z" />
<glyph unicode="&#xb1;" horiz-adv-x="1014" />
<glyph unicode="&#xb2;" horiz-adv-x="1014" />
<glyph unicode="&#xb3;" horiz-adv-x="1014" />
<glyph unicode="&#xb4;" horiz-adv-x="700" d="M0 1800l200 250q100 100 200 100t100 -100t-300 -200l-150 -50h-50z" />
<glyph unicode="&#xb5;" horiz-adv-x="1600" d="M0 0v300h150q50 0 50 50v350l-100 100l100 100v350q0 50 -50 50h-150v300l601 -1v-300l-151 1q-49 -1 -50 -50v-350l100 -100l-100 -100v-200q0 -83 88 -141.5t212 -58.5t212 58.5t88 141.5v450h-1v300q0 50 -50 50h-150v300l601 -1v-300l-151 1q-49 -1 -50 -50v-200h1 v-600q0 -186 -146.5 -318t-353.5 -132q-51 0 -99 8v-9z" />
<glyph unicode="&#xb6;" horiz-adv-x="1024" d="M93 1086q0 157 107.5 253t285.5 96h443v-70h-127v-1365h-82v1365h-166v-1365h-84v738q-174 8 -275.5 102.5t-101.5 245.5z" />
<glyph unicode="&#xb7;" horiz-adv-x="508" d="M129 709q0 15 16 31l82 84q15 14 29 14q13 0 31 -16l80 -86q12 -16 12 -29q0 -15 -14 -31l-80 -88q-20 -20 -29 -20q-16 0 -29 14l-88 101q-10 13 -10 26z" />
<glyph unicode="&#xb8;" horiz-adv-x="700" d="M0 -200q124 0 212 59q60 40 88 91v100h200v-100q0 -186 -146.5 -318t-353.5 -132v300z" />
<glyph unicode="&#xb9;" horiz-adv-x="1014" />
<glyph unicode="&#xba;" horiz-adv-x="718" />
<glyph unicode="&#xbb;" horiz-adv-x="944" d="M101 176v37l205 266l-205 266v37h14l342 -303l-342 -303h-14zM414 176v37l205 266l-205 266v37h14l342 -303l-342 -303h-14z" />
<glyph unicode="&#xbc;" horiz-adv-x="1708" />
<glyph unicode="&#xbd;" horiz-adv-x="1964" />
<glyph unicode="&#xbe;" horiz-adv-x="1708" />
<glyph unicode="&#xbf;" d="M0 450q0 186 146.5 318t353.5 132q200 0 200 51v-1q0 62 29.5 106t70.5 44t70.5 -44t29.5 -106t-83 -148q-135 -102 -317 -102q-124 0 -212 -58.5t-88 -141.5t88 -141.5t212 -58.5t212 58.5t88 141.5h200v-500l-200 50v40q-129 -90 -300 -90q-207 0 -353.5 132 t-146.5 318zM700 1450q0 62 29.5 106t70.5 44t70.5 -44t29.5 -106t-29.5 -106t-70.5 -44t-70.5 44t-29.5 106z" />
<glyph unicode="&#xc0;" horiz-adv-x="1500" d="M0 1v300h50q50 0 150 250l300 750h-150v299l601 1l-1 -300h-150l300 -750q100 -250 151 -250h50v-300l-601 -1v301h300l-80 199h-540l-80 -199h301l-1 -300h-600zM450 2050q0 100 100 100t200 -100l200 -250h-50l-150 50q-300 100 -300 200zM460 700h380l-190 476z" />
<glyph unicode="&#xc1;" horiz-adv-x="1500" d="M0 1v300h50q50 0 150 250l300 750h-150v299l601 1l-1 -300h-150l300 -750q100 -250 151 -250h50v-300l-601 -1v301h300l-80 199h-540l-80 -199h301l-1 -300h-600zM450 1800l200 250q100 100 200 100t100 -100t-300 -200l-150 -50h-50zM460 700h380l-190 476z" />
<glyph unicode="&#xc2;" horiz-adv-x="1500" d="M0 1v300h50q50 0 150 250l300 750h-150v299l601 1l-1 -300h-150l300 -750q100 -250 151 -250h50v-300l-601 -1v301h300l-80 199h-540l-80 -199h301l-1 -300h-600zM200 1800l350 500h300l350 -500h-250l-250 357l-250 -357h-250zM460 700h380l-190 476z" />
<glyph unicode="&#xc3;" horiz-adv-x="1500" d="M0 1v300h50q50 0 150 250l300 750h-150v299l601 1l-1 -300h-150l300 -750q100 -250 151 -250h50v-300l-601 -1v301h300l-80 199h-540l-80 -199h301l-1 -300h-600zM150 1800v200q50 50 125 75t175 25t200 -25t200 -25t175 25t125 75v-200q-50 -50 -125 -75t-175 -25 t-200 25t-200 25t-175 -25t-125 -75zM460 700h380l-190 476z" />
<glyph unicode="&#xc4;" horiz-adv-x="1500" d="M0 1v300h50q50 0 150 250l300 750h-150v299l601 1l-1 -300h-150l300 -750q100 -250 151 -250h50v-300l-601 -1v301h300l-80 199h-540l-80 -199h301l-1 -300h-600zM450 1950q0 62 29.5 106t70.5 44t70.5 -44t29.5 -106t-29.5 -106t-70.5 -44t-70.5 44t-29.5 106zM460 700 h380l-190 476zM750 1950q0 62 29.5 106t70.5 44t70.5 -44t29.5 -106t-29.5 -106t-70.5 -44t-70.5 44t-29.5 106z" />
<glyph unicode="&#xc5;" horiz-adv-x="1500" d="M0 1v300h50q50 0 150 250l300 750h-150v299l601 1l-1 -300h-150l300 -750q100 -250 151 -250h50v-300l-601 -1v301h300l-80 199h-540l-80 -199h301l-1 -300h-600zM250 2050q0 104 117 177t283 73t283 -73t117 -177t-117 -177t-283 -73t-283 73t-117 177zM450 2050 q0 -21 58.5 -35.5t141.5 -14.5t141.5 14.5t58.5 35.5t-58.5 35.5t-141.5 14.5t-141.5 -14.5t-58.5 -35.5zM460 700h380l-190 476z" />
<glyph unicode="&#xc6;" horiz-adv-x="1900" d="M0 1v300h50q50 0 150 250l300 750h-150v299l601 1v-1h749v-500h-200v100q0 100 -100 100h-250q-49 -1 -50 -50v-350h200q50 0 50 50v100h100v-500h-100v100q0 50 -50 50h-200v-149q100 -250 151 -250h50v-1h99q100 0 100 100v100h200v-500h-1000v301h163q37 6 37 49v150 h-520l-80 -199h301l-1 -300h-600zM460 700h380l-190 476zM800 1300l100 -249v199q0 50 -50 50h-50z" />
<glyph unicode="&#xc7;" d="M0 450v700q0 186 146.5 318t353.5 132q171 0 300 -90v40l200 50v-500h-200q0 83 -88 141.5t-212 58.5t-212 -58.5t-88 -141.5v-600q0 -83 88 -141.5t212 -58.5t212 58.5t88 141.5h200v-500l-200 50v40q-90 -63 -200 -82v-58q0 -186 -146.5 -318t-353.5 -132v300 q124 0 212 59q60 40 88 91v58q-144 25 -253 124q-147 132 -147 318z" />
<glyph unicode="&#xc8;" d="M0 0v300h150q50 0 50 50v350l-100 100l100 100v350q0 50 -50 50h-150v300h1000v-500h-200v100q0 100 -100 100h-250q-49 -1 -50 -50v-350h200q50 0 50 50v100h100v-500h-100v100q0 50 -50 50h-200v-350q0 -50 50 -50h250q100 0 100 100v100h200v-500h-1000zM250 2050 q0 100 100 100t200 -100l200 -250h-50l-150 50q-300 100 -300 200z" />
<glyph unicode="&#xc9;" d="M0 0v300h150q50 0 50 50v350l-100 100l100 100v350q0 50 -50 50h-150v300h1000v-500h-200v100q0 100 -100 100h-250q-49 -1 -50 -50v-350h200q50 0 50 50v100h100v-500h-100v100q0 50 -50 50h-200v-350q0 -50 50 -50h250q100 0 100 100v100h200v-500h-1000zM250 1800 l200 250q100 100 200 100t100 -100t-300 -200l-150 -50h-50z" />
<glyph unicode="&#xca;" d="M0 0v300h150q50 0 50 50v350l-100 100l100 100v350q0 50 -50 50h-150v300h1000v-500h-200v100q0 100 -100 100h-250q-49 -1 -50 -50v-350h200q50 0 50 50v100h100v-500h-100v100q0 50 -50 50h-200v-350q0 -50 50 -50h250q100 0 100 100v100h200v-500h-1000zM0 1800 l350 500h300l350 -500h-250l-250 357l-250 -357h-250z" />
<glyph unicode="&#xcb;" d="M0 0v300h150q50 0 50 50v350l-100 100l100 100v350q0 50 -50 50h-150v300h1000v-500h-200v100q0 100 -100 100h-250q-49 -1 -50 -50v-350h200q50 0 50 50v100h100v-500h-100v100q0 50 -50 50h-200v-350q0 -50 50 -50h250q100 0 100 100v100h200v-500h-1000zM250 1950 q0 62 29.5 106t70.5 44t70.5 -44t29.5 -106t-29.5 -106t-70.5 -44t-70.5 44t-29.5 106zM550 1950q0 62 29.5 106t70.5 44t70.5 -44t29.5 -106t-29.5 -106t-70.5 -44t-70.5 44t-29.5 106z" />
<glyph unicode="&#xcc;" horiz-adv-x="800" d="M0 0v300h150q50 0 50 50v350l-100 100l100 100v350q0 50 -50 50h-150v300l601 -1v-300l-151 1q-49 -1 -50 -50v-350l100 -100l-100 -100v-350q0 -50 50 -50h150l1 -301zM50 2050q0 100 100 100t200 -100l200 -250h-50l-150 50q-300 100 -300 200z" />
<glyph unicode="&#xcd;" horiz-adv-x="800" d="M0 0v300h150q50 0 50 50v350l-100 100l100 100v350q0 50 -50 50h-150v300l601 -1v-300l-151 1q-49 -1 -50 -50v-350l100 -100l-100 -100v-350q0 -50 50 -50h150l1 -301zM50 1800l200 250q100 100 200 100t100 -100t-300 -200l-150 -50h-50z" />
<glyph unicode="&#xce;" horiz-adv-x="800" d="M-200 1800l350 500h300l350 -500h-250l-250 357l-250 -357h-250zM0 0v300h150q50 0 50 50v350l-100 100l100 100v350q0 50 -50 50h-150v300l601 -1v-300l-151 1q-49 -1 -50 -50v-350l100 -100l-100 -100v-350q0 -50 50 -50h150l1 -301z" />
<glyph unicode="&#xcf;" horiz-adv-x="800" d="M0 0v300h150q50 0 50 50v350l-100 100l100 100v350q0 50 -50 50h-150v300l601 -1v-300l-151 1q-49 -1 -50 -50v-350l100 -100l-100 -100v-350q0 -50 50 -50h150l1 -301zM50 1950q0 62 29.5 106t70.5 44t70.5 -44t29.5 -106t-29.5 -106t-70.5 -44t-70.5 44t-29.5 106z M350 1950q0 62 29.5 106t70.5 44t70.5 -44t29.5 -106t-29.5 -106t-70.5 -44t-70.5 44t-29.5 106z" />
<glyph unicode="&#xd0;" d="M0 0v300h150q50 0 50 50v350h-100l-100 100l100 100h100v350q0 50 -50 50h-150v300h500q207 0 353.5 -132t146.5 -318v-700q0 -186 -146.5 -318t-353.5 -132h-500zM400 350q0 -50 50 -50h50q124 0 212 58.5t88 141.5v600q0 83 -88 141.5t-212 58.5h-50q-49 -1 -50 -50 v-350h100l100 -100l-100 -100h-100v-350z" />
<glyph unicode="&#xd1;" horiz-adv-x="1500" d="M0 0v300h150q50 0 50 50v350l-100 100l100 100v350q0 50 -50 50h-150v300h400l500 -1100v751q0 50 -50 50h-150v300l601 -1v-300l-151 1q-49 -1 -50 -50v-350l100 -100l-100 -100v-350q0 -50 50 -50h150l1 -301h-401l-500 1100v-750q0 -50 50 -50h150l1 -301zM150 1800 v200q50 50 125 75t175 25t200 -25t200 -25t175 25t125 75v-200q-50 -50 -125 -75t-175 -25t-200 25t-200 25t-175 -25t-125 -75z" />
<glyph unicode="&#xd2;" d="M0 450v700q0 186 146.5 318t353.5 132t353.5 -132t146.5 -318v-700q0 -186 -146.5 -318t-353.5 -132t-353.5 132t-146.5 318zM200 500q0 -83 88 -141.5t212 -58.5t212 58.5t88 141.5v600q0 83 -88 141.5t-212 58.5t-212 -58.5t-88 -141.5v-600zM250 2050q0 100 100 100 t200 -100l200 -250h-50l-150 50q-300 100 -300 200z" />
<glyph unicode="&#xd3;" d="M0 450v700q0 186 146.5 318t353.5 132t353.5 -132t146.5 -318v-700q0 -186 -146.5 -318t-353.5 -132t-353.5 132t-146.5 318zM200 500q0 -83 88 -141.5t212 -58.5t212 58.5t88 141.5v600q0 83 -88 141.5t-212 58.5t-212 -58.5t-88 -141.5v-600zM250 1800l200 250 q100 100 200 100t100 -100t-300 -200l-150 -50h-50z" />
<glyph unicode="&#xd4;" d="M0 450v700q0 186 146.5 318t353.5 132t353.5 -132t146.5 -318v-700q0 -186 -146.5 -318t-353.5 -132t-353.5 132t-146.5 318zM0 1800l350 500h300l350 -500h-250l-250 357l-250 -357h-250zM200 500q0 -83 88 -141.5t212 -58.5t212 58.5t88 141.5v600q0 83 -88 141.5 t-212 58.5t-212 -58.5t-88 -141.5v-600z" />
<glyph unicode="&#xd5;" d="M0 450v700q0 186 146.5 318t353.5 132t353.5 -132t146.5 -318v-700q0 -186 -146.5 -318t-353.5 -132t-353.5 132t-146.5 318zM0 1800v200q50 50 125 75t175 25t200 -25t200 -25t175 25t125 75v-200q-50 -50 -125 -75t-175 -25t-200 25t-200 25t-175 -25t-125 -75z M200 500q0 -83 88 -141.5t212 -58.5t212 58.5t88 141.5v600q0 83 -88 141.5t-212 58.5t-212 -58.5t-88 -141.5v-600z" />
<glyph unicode="&#xd6;" d="M0 450v700q0 186 146.5 318t353.5 132t353.5 -132t146.5 -318v-700q0 -186 -146.5 -318t-353.5 -132t-353.5 132t-146.5 318zM200 500q0 -83 88 -141.5t212 -58.5t212 58.5t88 141.5v600q0 83 -88 141.5t-212 58.5t-212 -58.5t-88 -141.5v-600zM250 1950q0 62 29.5 106 t70.5 44t70.5 -44t29.5 -106t-29.5 -106t-70.5 -44t-70.5 44t-29.5 106zM550 1950q0 62 29.5 106t70.5 44t70.5 -44t29.5 -106t-29.5 -106t-70.5 -44t-70.5 44t-29.5 106z" />
<glyph unicode="&#xd7;" horiz-adv-x="1014" d="M161 470l247 247l-247 248l99 98l247 -247l248 247l98 -99l-247 -247l247 -247l-99 -99l-247 247l-247 -247z" />
<glyph unicode="&#xd8;" d="M0 450v700q0 186 146.5 318t353.5 132t353.5 -132t146.5 -318v-700q0 -186 -146.5 -318t-353.5 -132t-353.5 132t-146.5 318zM200 500q0 -83 88 -141.5t212 -58.5t212 58.5t88 141.5v488zM200 662l593 482q-18 55 -81 98q-88 58 -212 58t-212 -58.5t-88 -141.5v-438z" />
<glyph unicode="&#xd9;" horiz-adv-x="1600" d="M0 1300v300l601 -1v-300l-151 1q-49 -1 -50 -50v-750q0 -83 88 -141.5t212 -58.5t212 58.5t88 141.5v450h-1v300q0 50 -50 50h-150v300l601 -1v-300l-151 1q-49 -1 -50 -50v-200h1v-600q0 -186 -146.5 -318t-353.5 -132t-353.5 132t-146.5 318v800q0 50 -50 50h-150z M450 2050q0 100 100 100t200 -100l200 -250h-50l-150 50q-300 100 -300 200z" />
<glyph unicode="&#xda;" horiz-adv-x="1600" d="M0 1300v300l601 -1v-300l-151 1q-49 -1 -50 -50v-750q0 -83 88 -141.5t212 -58.5t212 58.5t88 141.5v450h-1v300q0 50 -50 50h-150v300l601 -1v-300l-151 1q-49 -1 -50 -50v-200h1v-600q0 -186 -146.5 -318t-353.5 -132t-353.5 132t-146.5 318v800q0 50 -50 50h-150z M450 1800l200 250q100 100 200 100t100 -100t-300 -200l-150 -50h-50z" />
<glyph unicode="&#xdb;" horiz-adv-x="1600" d="M0 1300v300l601 -1v-300l-151 1q-49 -1 -50 -50v-750q0 -83 88 -141.5t212 -58.5t212 58.5t88 141.5v450h-1v300q0 50 -50 50h-150v300l601 -1v-300l-151 1q-49 -1 -50 -50v-200h1v-600q0 -186 -146.5 -318t-353.5 -132t-353.5 132t-146.5 318v800q0 50 -50 50h-150z M200 1800l350 500h300l350 -500h-250l-250 357l-250 -357h-250z" />
<glyph unicode="&#xdc;" horiz-adv-x="1600" d="M0 1300v300l601 -1v-300l-151 1q-49 -1 -50 -50v-750q0 -83 88 -141.5t212 -58.5t212 58.5t88 141.5v450h-1v300q0 50 -50 50h-150v300l601 -1v-300l-151 1q-49 -1 -50 -50v-200h1v-600q0 -186 -146.5 -318t-353.5 -132t-353.5 132t-146.5 318v800q0 50 -50 50h-150z M450 1950q0 62 29.5 106t70.5 44t70.5 -44t29.5 -106t-29.5 -106t-70.5 -44t-70.5 44t-29.5 106zM750 1950q0 62 29.5 106t70.5 44t70.5 -44t29.5 -106t-29.5 -106t-70.5 -44t-70.5 44t-29.5 106z" />
<glyph unicode="&#xdd;" horiz-adv-x="1500" d="M0 1300v300l601 -1v-299h-251l300 -353l300 353h-250v301l601 -1v-300h-50q-51 0 -100 -50l-376 -450l-25 -29v-420q0 -50 50 -50h150l1 -301l-601 1v300h150q50 0 50 50v420l-25 29l-375 450q-50 50 -100 50h-50zM400 1800l200 250q100 100 200 100t100 -100t-300 -200 l-150 -50h-50z" />
<glyph unicode="&#xde;" d="M0 0v300h150q50 0 50 50l-100 100l100 100v500l-100 100l100 100q0 50 -50 50h-150v300h600l1 -301l-151 1q-49 -1 -50 -50h100q207 0 353.5 -132t146.5 -318t-146.5 -318t-353.5 -132h-100q0 -50 50 -50h150l1 -301zM400 550h100q124 0 212 83.5t88 166.5t-88 166.5 t-212 83.5h-100v-500z" />
<glyph unicode="&#xdf;" horiz-adv-x="1400" d="M0 0v300h150q50 0 50 50v350l-100 100l100 100v250q0 186 146.5 318t353.5 132t353.5 -132t146.5 -318t-146 -318q-19 -17 -39 -32q20 -15 39 -32q146 -132 146 -318t-146.5 -318t-353.5 -132v300q124 0 212 58.5t88 141.5t-88 141.5t-212 58.5l-100 100l100 100 q124 0 212 58.5t88 141.5t-88 141.5t-212 58.5t-212 -58.5t-88 -141.5v-200l100 -100l-100 -100v-350q0 -50 50 -50h150v-300h-600z" />
<glyph unicode="&#xe0;" d="M0 1v240h40q40 0 120 200l240 600h-120v239l481 1l-1 -240h-120l240 -600q80 -200 121 -200h40v-240l-481 -1v241h240l-64 159h-432l-64 -159h241l-1 -240h-480zM360 1640q0 80 80 80t160 -80l160 -200h-40l-120 40q-240 80 -240 160zM368 560h304l-152 381z" />
<glyph unicode="&#xe1;" d="M0 1v240h40q40 0 120 200l240 600h-120v239l481 1l-1 -240h-120l240 -600q80 -200 121 -200h40v-240l-481 -1v241h240l-64 159h-432l-64 -159h241l-1 -240h-480zM360 1440l160 200q80 80 160 80t80 -80t-240 -160l-120 -40h-40zM368 560h304l-152 381z" />
<glyph unicode="&#xe2;" d="M0 1v240h40q40 0 120 200l240 600h-120v239l481 1l-1 -240h-120l240 -600q80 -200 121 -200h40v-240l-481 -1v241h240l-64 159h-432l-64 -159h241l-1 -240h-480zM160 1440l280 400h240l280 -400h-200l-200 286l-200 -286h-200zM368 560h304l-152 381z" />
<glyph unicode="&#xe3;" d="M0 1v240h40q40 0 120 200l240 600h-120v239l481 1l-1 -240h-120l240 -600q80 -200 121 -200h40v-240l-481 -1v241h240l-64 159h-432l-64 -159h241l-1 -240h-480zM120 1440v160q40 40 100 60t140 20t160 -20t160 -20t140 20t100 60v-160q-40 -40 -100 -60t-140 -20 t-160 20t-160 20t-140 -20t-100 -60zM368 560h304l-152 381z" />
<glyph unicode="&#xe4;" d="M0 1v240h40q40 0 120 200l240 600h-120v239l481 1l-1 -240h-120l240 -600q80 -200 121 -200h40v-240l-481 -1v241h240l-64 159h-432l-64 -159h241l-1 -240h-480zM360 1560q0 50 23.5 85t56.5 35t56.5 -35t23.5 -85t-23.5 -85t-56.5 -35t-56.5 35t-23.5 85zM368 560h304 l-152 381zM600 1560q0 50 23.5 85t56.5 35t56.5 -35t23.5 -85t-23.5 -85t-56.5 -35t-56.5 35t-23.5 85z" />
<glyph unicode="&#xe5;" d="M0 1v240h40q40 0 120 200l240 600h-120v239l481 1l-1 -240h-120l240 -600q80 -200 121 -200h40v-240l-481 -1v241h240l-64 159h-432l-64 -159h241l-1 -240h-480zM200 1640q0 83 93.5 141.5t226.5 58.5t226.5 -58.5t93.5 -141.5t-93.5 -141.5t-226.5 -58.5t-226.5 58.5 t-93.5 141.5zM360 1640q0 -17 47 -28.5t113 -11.5t113 11.5t47 28.5t-47 28.5t-113 11.5t-113 -11.5t-47 -28.5zM368 560h304l-152 381z" />
<glyph unicode="&#xe6;" horiz-adv-x="1520" d="M0 1v240h40q40 0 120 200l240 600h-120v239l481 1v-1h599v-400h-160v80q0 80 -80 80h-200q-39 -1 -40 -40v-280h160q40 0 40 40v80h80v-400h-80v80q0 40 -40 40h-160v-119q80 -200 121 -200h40v-1h79q80 0 80 80v80h160v-400h-800v241h131q29 5 29 39v120h-416l-64 -159 h241l-1 -240h-480zM368 560h304l-152 381zM640 1040l80 -199v159q0 40 -40 40h-40z" />
<glyph unicode="&#xe7;" horiz-adv-x="960" d="M0 360v560q0 149 117 254.5t283 105.5q137 0 240 -72v32l160 40v-400h-160q0 66 -70.5 113t-169.5 47t-169.5 -47t-70.5 -113v-480q0 -66 70.5 -113t169.5 -47t169.5 47t70.5 113h160v-400l-160 40v32q-72 -50 -160 -65v-47q0 -149 -117 -254.5t-283 -105.5v240 q99 0 170 47q48 32 70 73v47q-115 19 -203 99q-117 105 -117 254z" />
<glyph unicode="&#xe8;" horiz-adv-x="960" d="M0 0v240h120q40 0 40 40v280l-80 80l80 80v280q0 40 -40 40h-120v240h800v-400h-160v80q0 80 -80 80h-200q-39 -1 -40 -40v-280h160q40 0 40 40v80h80v-400h-80v80q0 40 -40 40h-160v-280q0 -40 40 -40h200q80 0 80 80v80h160v-400h-800zM200 1640q0 80 80 80t160 -80 l160 -200h-40l-120 40q-240 80 -240 160z" />
<glyph unicode="&#xe9;" horiz-adv-x="960" d="M0 0v240h120q40 0 40 40v280l-80 80l80 80v280q0 40 -40 40h-120v240h800v-400h-160v80q0 80 -80 80h-200q-39 -1 -40 -40v-280h160q40 0 40 40v80h80v-400h-80v80q0 40 -40 40h-160v-280q0 -40 40 -40h200q80 0 80 80v80h160v-400h-800zM200 1440l160 200q80 80 160 80 t80 -80t-240 -160l-120 -40h-40z" />
<glyph unicode="&#xea;" horiz-adv-x="960" d="M0 0v240h120q40 0 40 40v280l-80 80l80 80v280q0 40 -40 40h-120v240h800v-400h-160v80q0 80 -80 80h-200q-39 -1 -40 -40v-280h160q40 0 40 40v80h80v-400h-80v80q0 40 -40 40h-160v-280q0 -40 40 -40h200q80 0 80 80v80h160v-400h-800zM0 1440l280 400h240l280 -400 h-200l-200 286l-200 -286h-200z" />
<glyph unicode="&#xeb;" horiz-adv-x="960" d="M0 0v240h120q40 0 40 40v280l-80 80l80 80v280q0 40 -40 40h-120v240h800v-400h-160v80q0 80 -80 80h-200q-39 -1 -40 -40v-280h160q40 0 40 40v80h80v-400h-80v80q0 40 -40 40h-160v-280q0 -40 40 -40h200q80 0 80 80v80h160v-400h-800zM200 1560q0 50 23.5 85t56.5 35 t56.5 -35t23.5 -85t-23.5 -85t-56.5 -35t-56.5 35t-23.5 85zM440 1560q0 50 23.5 85t56.5 35t56.5 -35t23.5 -85t-23.5 -85t-56.5 -35t-56.5 35t-23.5 85z" />
<glyph unicode="&#xec;" horiz-adv-x="640" d="M0 0v240h120q40 0 40 40v280l-80 80l80 80v280q0 40 -40 40h-120v240l481 -1v-240l-121 1q-39 -1 -40 -40v-280l80 -80l-80 -80v-280q0 -40 40 -40h120l1 -241zM40 1640q0 80 80 80t160 -80l160 -200h-40l-120 40q-240 80 -240 160z" />
<glyph unicode="&#xed;" horiz-adv-x="640" d="M0 0v240h120q40 0 40 40v280l-80 80l80 80v280q0 40 -40 40h-120v240l481 -1v-240l-121 1q-39 -1 -40 -40v-280l80 -80l-80 -80v-280q0 -40 40 -40h120l1 -241zM40 1440l160 200q80 80 160 80t80 -80t-240 -160l-120 -40h-40z" />
<glyph unicode="&#xee;" horiz-adv-x="640" d="M-160 1440l280 400h240l280 -400h-200l-200 286l-200 -286h-200zM0 0v240h120q40 0 40 40v280l-80 80l80 80v280q0 40 -40 40h-120v240l481 -1v-240l-121 1q-39 -1 -40 -40v-280l80 -80l-80 -80v-280q0 -40 40 -40h120l1 -241z" />
<glyph unicode="&#xef;" horiz-adv-x="640" d="M0 0v240h120q40 0 40 40v280l-80 80l80 80v280q0 40 -40 40h-120v240l481 -1v-240l-121 1q-39 -1 -40 -40v-280l80 -80l-80 -80v-280q0 -40 40 -40h120l1 -241zM40 1560q0 50 23.5 85t56.5 35t56.5 -35t23.5 -85t-23.5 -85t-56.5 -35t-56.5 35t-23.5 85zM280 1560 q0 50 23.5 85t56.5 35t56.5 -35t23.5 -85t-23.5 -85t-56.5 -35t-56.5 35t-23.5 85z" />
<glyph unicode="&#xf0;" horiz-adv-x="960" d="M0 0v240h120q40 0 40 40v280h-80l-80 80l80 80h80v280q0 40 -40 40h-120v240h400q166 0 283 -105.5t117 -254.5v-560q0 -149 -117 -254.5t-283 -105.5h-400zM320 280q0 -40 40 -40h40q99 0 169.5 47t70.5 113v480q0 66 -70.5 113t-169.5 47h-40q-39 -1 -40 -40v-280h80 l80 -80l-80 -80h-80v-280z" />
<glyph unicode="&#xf1;" d="M0 0v240h120q40 0 40 40v280l-80 80l80 80v280q0 40 -40 40h-120v240h320l400 -880v601q0 40 -40 40h-120v240l481 -1v-240l-121 1q-39 -1 -40 -40v-280l80 -80l-80 -80v-280q0 -40 40 -40h120l1 -241h-321l-400 880v-600q0 -40 40 -40h120l1 -241zM120 1440v160 q40 40 100 60t140 20t160 -20t160 -20t140 20t100 60v-160q-40 -40 -100 -60t-140 -20t-160 20t-160 20t-140 -20t-100 -60z" />
<glyph unicode="&#xf2;" horiz-adv-x="960" d="M0 360v560q0 149 117 254.5t283 105.5t283 -105.5t117 -254.5v-560q0 -149 -117 -254.5t-283 -105.5t-283 105.5t-117 254.5zM160 400q0 -66 70.5 -113t169.5 -47t169.5 47t70.5 113v480q0 66 -70.5 113t-169.5 47t-169.5 -47t-70.5 -113v-480zM200 1640q0 80 80 80 t160 -80l160 -200h-40l-120 40q-240 80 -240 160z" />
<glyph unicode="&#xf3;" horiz-adv-x="960" d="M0 360v560q0 149 117 254.5t283 105.5t283 -105.5t117 -254.5v-560q0 -149 -117 -254.5t-283 -105.5t-283 105.5t-117 254.5zM160 400q0 -66 70.5 -113t169.5 -47t169.5 47t70.5 113v480q0 66 -70.5 113t-169.5 47t-169.5 -47t-70.5 -113v-480zM200 1440l160 200 q80 80 160 80t80 -80t-240 -160l-120 -40h-40z" />
<glyph unicode="&#xf4;" horiz-adv-x="960" d="M0 360v560q0 149 117 254.5t283 105.5t283 -105.5t117 -254.5v-560q0 -149 -117 -254.5t-283 -105.5t-283 105.5t-117 254.5zM0 1440l280 400h240l280 -400h-200l-200 286l-200 -286h-200zM160 400q0 -66 70.5 -113t169.5 -47t169.5 47t70.5 113v480q0 66 -70.5 113 t-169.5 47t-169.5 -47t-70.5 -113v-480z" />
<glyph unicode="&#xf5;" horiz-adv-x="960" d="M0 360v560q0 149 117 254.5t283 105.5t283 -105.5t117 -254.5v-560q0 -149 -117 -254.5t-283 -105.5t-283 105.5t-117 254.5zM0 1440v160q40 40 100 60t140 20t160 -20t160 -20t140 20t100 60v-160q-40 -40 -100 -60t-140 -20t-160 20t-160 20t-140 -20t-100 -60z M160 400q0 -66 70.5 -113t169.5 -47t169.5 47t70.5 113v480q0 66 -70.5 113t-169.5 47t-169.5 -47t-70.5 -113v-480z" />
<glyph unicode="&#xf6;" horiz-adv-x="960" d="M0 360v560q0 149 117 254.5t283 105.5t283 -105.5t117 -254.5v-560q0 -149 -117 -254.5t-283 -105.5t-283 105.5t-117 254.5zM160 400q0 -66 70.5 -113t169.5 -47t169.5 47t70.5 113v480q0 66 -70.5 113t-169.5 47t-169.5 -47t-70.5 -113v-480zM200 1560q0 50 23.5 85 t56.5 35t56.5 -35t23.5 -85t-23.5 -85t-56.5 -35t-56.5 35t-23.5 85zM440 1560q0 50 23.5 85t56.5 35t56.5 -35t23.5 -85t-23.5 -85t-56.5 -35t-56.5 35t-23.5 85z" />
<glyph unicode="&#xf7;" horiz-adv-x="1014" d="M87 647v140h839l1 -1v-139h-840zM382 377q0 15 16 31l82 84q15 14 29 14q13 0 31 -16l80 -86q12 -16 12 -29q0 -15 -14 -31l-80 -88q-20 -20 -29 -20q-16 0 -29 14l-88 101q-10 13 -10 26zM382 1070q0 15 16 31l82 84q15 14 29 14q13 0 31 -16l80 -86q12 -16 12 -29 q0 -15 -14 -31l-80 -88q-20 -20 -29 -20q-16 0 -29 14l-88 101q-10 13 -10 26z" />
<glyph unicode="&#xf8;" horiz-adv-x="960" d="M0 360v560q0 149 117 254.5t283 105.5t283 -105.5t117 -254.5v-560q0 -149 -117 -254.5t-283 -105.5t-283 105.5t-117 254.5zM160 400q0 -66 70.5 -113t169.5 -47t169.5 47t70.5 113v390zM160 530l475 386q-15 43 -65 77q-71 47 -170 47t-169.5 -47t-70.5 -113v-350z" />
<glyph unicode="&#xf9;" horiz-adv-x="1280" d="M0 1040v240l481 -1v-240l-121 1q-39 -1 -40 -40v-600q0 -66 70.5 -113t169.5 -47t169.5 47t70.5 113v360h-1v240q0 40 -40 40h-120v240l481 -1v-240l-121 1q-39 -1 -40 -40v-160h1v-480q0 -149 -117 -254.5t-283 -105.5t-283 105.5t-117 254.5v640q0 40 -40 40h-120z M360 1640q0 80 80 80t160 -80l160 -200h-40l-120 40q-240 80 -240 160z" />
<glyph unicode="&#xfa;" horiz-adv-x="1280" d="M0 1040v240l481 -1v-240l-121 1q-39 -1 -40 -40v-600q0 -66 70.5 -113t169.5 -47t169.5 47t70.5 113v360h-1v240q0 40 -40 40h-120v240l481 -1v-240l-121 1q-39 -1 -40 -40v-160h1v-480q0 -149 -117 -254.5t-283 -105.5t-283 105.5t-117 254.5v640q0 40 -40 40h-120z M360 1440l160 200q80 80 160 80t80 -80t-240 -160l-120 -40h-40z" />
<glyph unicode="&#xfb;" horiz-adv-x="1280" d="M0 1040v240l481 -1v-240l-121 1q-39 -1 -40 -40v-600q0 -66 70.5 -113t169.5 -47t169.5 47t70.5 113v360h-1v240q0 40 -40 40h-120v240l481 -1v-240l-121 1q-39 -1 -40 -40v-160h1v-480q0 -149 -117 -254.5t-283 -105.5t-283 105.5t-117 254.5v640q0 40 -40 40h-120z M160 1440l280 400h240l280 -400h-200l-200 286l-200 -286h-200z" />
<glyph unicode="&#xfc;" horiz-adv-x="1280" d="M0 1040v240l481 -1v-240l-121 1q-39 -1 -40 -40v-600q0 -66 70.5 -113t169.5 -47t169.5 47t70.5 113v360h-1v240q0 40 -40 40h-120v240l481 -1v-240l-121 1q-39 -1 -40 -40v-160h1v-480q0 -149 -117 -254.5t-283 -105.5t-283 105.5t-117 254.5v640q0 40 -40 40h-120z M360 1560q0 50 23.5 85t56.5 35t56.5 -35t23.5 -85t-23.5 -85t-56.5 -35t-56.5 35t-23.5 85zM600 1560q0 50 23.5 85t56.5 35t56.5 -35t23.5 -85t-23.5 -85t-56.5 -35t-56.5 35t-23.5 85z" />
<glyph unicode="&#xfd;" d="M0 1040v240l481 -1v-239h-201l240 -282l240 282h-200v241l481 -1v-240h-40q-41 0 -80 -40l-301 -360l-20 -23v-336q0 -40 40 -40h120l1 -241l-481 1v240h120q40 0 40 40v336l-20 23l-300 360q-40 40 -80 40h-40zM320 1440l160 200q80 80 160 80t80 -80t-240 -160 l-120 -40h-40z" />
<glyph unicode="&#xfe;" horiz-adv-x="960" d="M0 0v240h120q40 0 40 40l-80 80l80 80v400l-80 80l80 80q0 40 -40 40h-120v240h480l1 -241l-121 1q-39 -1 -40 -40h80q166 0 283 -105.5t117 -254.5t-117 -254.5t-283 -105.5h-80q0 -40 40 -40h120l1 -241zM320 440h80q99 0 169.5 67t70.5 133t-70.5 133t-169.5 67h-80 v-400z" />
<glyph unicode="&#xff;" d="M0 1040v240l481 -1v-239h-201l240 -282l240 282h-200v241l481 -1v-240h-40q-41 0 -80 -40l-301 -360l-20 -23v-336q0 -40 40 -40h120l1 -241l-481 1v240h120q40 0 40 40v336l-20 23l-300 360q-40 40 -80 40h-40zM320 1560q0 50 23.5 85t56.5 35t56.5 -35t23.5 -85 t-23.5 -85t-56.5 -35t-56.5 35t-23.5 85zM560 1560q0 50 23.5 85t56.5 35t56.5 -35t23.5 -85t-23.5 -85t-56.5 -35t-56.5 35t-23.5 85z" />
<glyph unicode="&#x2c6;" d="M0 1800l350 500h300l350 -500h-250l-250 357l-250 -357h-250z" />
<glyph unicode="&#x2dc;" d="M0 1800v200q50 50 125 75t175 25t200 -25t200 -25t175 25t125 75v-200q-50 -50 -125 -75t-175 -25t-200 25t-200 25t-175 -25t-125 -75z" />
<glyph unicode="&#x2000;" horiz-adv-x="1150" />
<glyph unicode="&#x2001;" horiz-adv-x="2300" />
<glyph unicode="&#x2002;" horiz-adv-x="1150" />
<glyph unicode="&#x2003;" horiz-adv-x="2300" />
<glyph unicode="&#x2004;" horiz-adv-x="766" />
<glyph unicode="&#x2005;" horiz-adv-x="575" />
<glyph unicode="&#x2006;" horiz-adv-x="383" />
<glyph unicode="&#x2007;" horiz-adv-x="383" />
<glyph unicode="&#x2008;" horiz-adv-x="287" />
<glyph unicode="&#x2009;" horiz-adv-x="460" />
<glyph unicode="&#x200a;" horiz-adv-x="127" />
<glyph unicode="&#x2010;" horiz-adv-x="1300" d="M0 800l100 100h900l100 -100l-100 -100h-900z" />
<glyph unicode="&#x2011;" horiz-adv-x="1300" d="M0 800l100 100h900l100 -100l-100 -100h-900z" />
<glyph unicode="&#x2012;" horiz-adv-x="1300" d="M0 800l100 100h900l100 -100l-100 -100h-900z" />
<glyph unicode="&#x2013;" horiz-adv-x="1300" d="M0 800l100 100h900l100 -100l-100 -100h-900z" />
<glyph unicode="&#x2014;" horiz-adv-x="1300" d="M0 800l100 100h900l100 -100l-100 -100h-900z" />
<glyph unicode="&#x2018;" horiz-adv-x="300" d="M0 1450q0 62 29.5 106t70.5 44t70.5 -44t29.5 -106q0 -39 -12 -72l-38 -228h-100l-38 228q-12 33 -12 72z" />
<glyph unicode="&#x2019;" horiz-adv-x="300" d="M0 1450q0 62 29.5 106t70.5 44t70.5 -44t29.5 -106q0 -39 -12 -72l-38 -228h-100l-38 228q-12 33 -12 72z" />
<glyph unicode="&#x201a;" horiz-adv-x="400" d="M0 150q0 62 29.5 106t70.5 44t70.5 -44t29.5 -106q0 -39 -12 -72l-38 -228h-100l-38 228q-12 33 -12 72z" />
<glyph unicode="&#x201c;" horiz-adv-x="550" d="M0 1450q0 62 29.5 106t70.5 44t70.5 -44t29.5 -106q0 -39 -12 -72l-38 -228h-100l-38 228q-12 33 -12 72zM250 1450q0 62 29.5 106t70.5 44t70.5 -44t29.5 -106q0 -39 -12 -72l-38 -228h-100l-38 228q-12 33 -12 72z" />
<glyph unicode="&#x201d;" horiz-adv-x="550" d="M0 1450q0 62 29.5 106t70.5 44t70.5 -44t29.5 -106q0 -39 -12 -72l-38 -228h-100l-38 228q-12 33 -12 72zM250 1450q0 62 29.5 106t70.5 44t70.5 -44t29.5 -106q0 -39 -12 -72l-38 -228h-100l-38 228q-12 33 -12 72z" />
<glyph unicode="&#x201e;" horiz-adv-x="550" d="M0 150q0 62 29.5 106t70.5 44t70.5 -44t29.5 -106q0 -39 -12 -72l-38 -228h-100l-38 228q-12 33 -12 72zM250 150q0 62 29.5 106t70.5 44t70.5 -44t29.5 -106q0 -39 -12 -72l-38 -228h-100l-38 228q-12 33 -12 72z" />
<glyph unicode="&#x2022;" horiz-adv-x="1024" d="M216 718q0 123 87 209t210 86q122 0 208.5 -86.5t86.5 -208.5t-87.5 -209.5t-209.5 -87.5q-123 0 -209 87t-86 210z" />
<glyph unicode="&#x2026;" horiz-adv-x="900" d="M0 150q0 62 29.5 106t70.5 44t70.5 -44t29.5 -106t-29.5 -106t-70.5 -44t-70.5 44t-29.5 106zM250 150q0 62 29.5 106t70.5 44t70.5 -44t29.5 -106t-29.5 -106t-70.5 -44t-70.5 44t-29.5 106zM500 150q0 62 29.5 106t70.5 44t70.5 -44t29.5 -106t-29.5 -106t-70.5 -44 t-70.5 44t-29.5 106z" />
<glyph unicode="&#x202f;" horiz-adv-x="460" />
<glyph unicode="&#x2039;" horiz-adv-x="631" d="M174 479l342 303h14v-37l-205 -266l205 -266v-37h-14z" />
<glyph unicode="&#x203a;" horiz-adv-x="631" d="M101 176v37l205 266l-205 266v37h14l342 -303l-342 -303h-14z" />
<glyph unicode="&#x205f;" horiz-adv-x="575" />
<glyph unicode="&#x20ac;" horiz-adv-x="1500" d="M0 600l100 100h200v200h-200l-100 100l100 100h200v50q0 186 146.5 318t353.5 132q171 0 300 -90v40l200 50v-500h-200q0 83 -88 141.5t-212 58.5t-212 -58.5t-88 -141.5h200l100 -100l-100 -100h-200v-200h200l100 -100l-100 -100h-200q0 -83 88 -141.5t212 -58.5 t212 58.5t88 141.5h200v-500l-200 50v40q-129 -90 -300 -90q-207 0 -353.5 132t-146.5 318v50h-200z" />
<glyph unicode="&#x2122;" horiz-adv-x="1497" />
<glyph unicode="&#xe000;" horiz-adv-x="1280" d="M0 0v1280h1280v-1280h-1280z" />
</font>
</defs>
</svg>
